<svg width="72" height="21" viewBox="0 0 72 21" version="1.1" xmlns="http://www.w3.org/2000/svg" xmlns:xlink="http://www.w3.org/1999/xlink">
<title>amazon-white-cta</title>
<desc>Created using Figma</desc>
<g id="Canvas" transform="translate(2167 2654)">
<g id="amazon-white-cta">
<g id="path8">
<use xlink:href="#path0_fill" transform="translate(-2157.24 -2640.68)" fill="#FF9900"/>
</g>
<g id="path10">
<use xlink:href="#path1_fill" transform="translate(-2127.35 -2641.41)" fill="#FF9900"/>
</g>
<g id="path12">
<use xlink:href="#path2_fill" transform="translate(-2127.32 -2653.69)" fill="#FFFFFF"/>
</g>
<g id="path14">
<use xlink:href="#path3_fill" transform="translate(-2155.18 -2653.89)" fill="#FFFFFF"/>
</g>
<g id="path16">
<use xlink:href="#path4_fill" transform="translate(-2117.82 -2653.89)" fill="#FFFFFF"/>
</g>
<g id="path18">
<use xlink:href="#path5_fill" transform="translate(-2106.48 -2653.89)" fill="#FFFFFF"/>
</g>
<g id="path28">
<use xlink:href="#path6_fill" transform="translate(-2138.87 -2654)" fill="#FFFFFF"/>
</g>
<g id="path30">
<use xlink:href="#path7_fill" transform="translate(-2167 -2654)" fill="#FFFFFF"/>
</g>
<g id="path32">
<use xlink:href="#path8_fill" transform="translate(-2097.25 -2653.72)" fill="#FFFFFF"/>
</g>
</g>
</g>
<defs>
<path id="path0_fill" fill-rule="evenodd" d="M 33.2614 3.00564C 29.2319 5.97194 23.3915 7.55457 18.363 7.55457C 11.3123 7.55457 4.96476 4.95001 0.162642 0.61813C -0.214646 0.277486 0.123402 -0.18675 0.57615 0.0785274C 5.75858 3.09005 12.1664 4.90178 18.7856 4.90178C 23.2496 4.90178 28.1604 3.97933 32.6758 2.06511C 33.3579 1.77571 33.9284 2.51126 33.2614 3.00564Z"/>
<path id="path1_fill" fill-rule="evenodd" d="M 5.03734 1.81525C 4.52423 1.15808 1.63269 1.50476 0.334817 1.6585C -0.0605827 1.70673 -0.120947 1.36307 0.235211 1.11588C 2.53818 -0.502924 6.3171 -0.0356714 6.75777 0.506944C 7.19844 1.05258 6.64308 4.83582 4.47895 6.64152C 4.14694 6.91886 3.83002 6.77114 3.97791 6.40337C 4.46386 5.19153 5.55347 2.47544 5.03734 1.81525Z"/>
<path id="path2_fill" fill-rule="evenodd" d="M 0.401435 1.9715L 0.401435 0.397918C 0.401435 0.15977 0.582533 0 0.79985 0L 7.85363 0C 8.08 0 8.2611 0.162785 8.2611 0.397918L 8.2611 1.74541C 8.25808 1.9715 8.06793 2.26693 7.72988 2.73418L 4.07471 7.94631C 5.43295 7.91315 6.86664 8.11512 8.09811 8.80846C 8.3758 8.96522 8.45125 9.19432 8.47238 9.42041L 8.47238 11.0995C 8.47238 11.3286 8.21884 11.5969 7.95323 11.4582C 5.78307 10.3218 2.90059 10.1982 0.501038 11.4703C 0.256556 11.6029 0 11.3377 0 11.1086L 0 9.51387C 0 9.25763 0.00301636 8.82052 0.259572 8.43165L 4.49426 2.36641L 0.808905 2.36641C 0.582533 2.36641 0.401435 2.20664 0.401435 1.9715Z"/>
<path id="path3_fill" fill-rule="evenodd" d="M 2.52934 11.9918L 0.383325 11.9918C 0.178082 11.9767 0.0150922 11.823 0 11.6271L 0 0.627025C 0 0.406964 0.184117 0.232119 0.413508 0.232119L 2.41464 0.232119C 2.62291 0.241157 2.78891 0.400933 2.804 0.599892L 2.804 2.03783L 2.84324 2.03783C 3.36541 0.648124 4.34636 0 5.66837 0C 7.01152 0 7.85061 0.648124 8.45427 2.03783C 8.97341 0.648124 10.1536 0 11.4182 0C 12.3177 0 13.3017 0.370787 13.9023 1.2028C 14.5814 2.12826 14.4426 3.47274 14.4426 4.65142L 14.4396 11.5939C 14.4396 11.814 14.2554 11.9918 14.0261 11.9918L 11.8831 11.9918C 11.6688 11.9767 11.4967 11.8049 11.4967 11.5939L 11.4967 5.76379C 11.4967 5.29955 11.539 4.14197 11.4364 3.70184C 11.2764 2.96329 10.7965 2.75528 10.1747 2.75528C 9.65555 2.75528 9.11226 3.10195 8.89192 3.65663C 8.67158 4.2113 8.69271 5.13978 8.69271 5.76379L 8.69271 11.5939C 8.69271 11.814 8.5086 11.9918 8.2792 11.9918L 6.13621 11.9918C 5.91889 11.9767 5.74987 11.8049 5.74987 11.5939L 5.74685 5.76379C 5.74685 4.53687 5.94907 2.73117 4.42483 2.73117C 2.88248 2.73117 2.94285 4.49165 2.94285 5.76379L 2.94285 11.5939C 2.94285 11.814 2.75873 11.9918 2.52934 11.9918Z"/>
<path id="path4_fill" fill-rule="evenodd" d="M 4.82929 1.30722e-14C 8.0136 1.30722e-14 9.73705 2.73117 9.73705 6.20391C 9.73705 9.55908 7.8325 12.2209 4.82929 12.2209C 1.70232 12.2209 0 9.48975 0 6.08634C 0 2.66183 1.72345 0 4.82929 0M 4.8474 2.24583C 3.26581 2.24583 3.1662 4.3982 3.1662 5.73967C 3.1662 7.08415 3.14507 9.95399 4.82929 9.95399C 6.49237 9.95399 6.57085 7.63883 6.57085 6.22802C 6.57085 5.29955 6.53161 4.1902 6.25091 3.30996C 6.00944 2.54427 5.52954 2.24583 4.8474 2.24583Z"/>
<path id="path5_fill" fill-rule="evenodd" d="M 2.52632 11.9918L 0.389361 11.9918C 0.17506 11.9767 0.00301636 11.8049 0.00301636 11.5939L 0 0.590848C 0.0181097 0.388874 0.19619 0.232119 0.413508 0.232119L 2.40257 0.232119C 2.5897 0.241157 2.74364 0.367774 2.7859 0.539602L 2.7859 2.22171L 2.82513 2.22171C 3.42578 0.717459 4.26788 0 5.74987 0C 6.7127 0 7.6514 0.346672 8.25506 1.29625C 8.81646 2.17649 8.81646 3.65663 8.81646 4.72076L 8.81646 11.6451C 8.79232 11.8381 8.61424 11.9918 8.40296 11.9918L 6.25091 11.9918C 6.05471 11.9767 5.89173 11.832 5.8706 11.6451L 5.8706 5.67034C 5.8706 4.46754 6.00944 2.70705 4.52745 2.70705C 4.00529 2.70705 3.52538 3.05674 3.28693 3.58729C 2.9851 4.25953 2.94586 4.92876 2.94586 5.67034L 2.94586 11.5939C 2.94285 11.814 2.75571 11.9918 2.52632 11.9918"/>
<path id="path6_fill" fill-rule="evenodd" d="M 6.32335 6.84299C 6.32335 7.67801 6.34448 8.37437 5.92191 9.11594C 5.58085 9.71885 5.03755 10.0896 4.43691 10.0896C 3.61291 10.0896 3.12998 9.46262 3.12998 8.53716C 3.12998 6.71035 4.76892 6.37875 6.32335 6.37875L 6.32335 6.84299ZM 8.48747 12.0672C 8.34561 12.1938 8.14037 12.2028 7.9804 12.1184C 7.26808 11.5276 7.13829 11.2532 6.74893 10.6895C 5.57179 11.8893 4.73572 12.248 3.21148 12.248C 1.40351 12.248 0 11.1357 0 8.90794C 0 7.16856 0.941713 5.98385 2.28788 5.40506C 3.45294 4.89258 5.07981 4.80215 6.32335 4.66047L 6.32335 4.38313C 6.32335 3.87367 6.36259 3.27077 6.06076 2.83065C 5.80118 2.43574 5.30014 2.27296 4.85645 2.27296C 4.03849 2.27296 3.31108 2.69198 3.133 3.56016C 3.09678 3.75309 2.95492 3.94301 2.75873 3.95205L 0.679119 3.72898C 0.504057 3.68979 0.307867 3.5481 0.359179 3.27981C 0.836071 0.759664 3.11791 0 5.15828 0C 6.20262 0 7.56689 0.277337 8.39089 1.06714C 9.43522 2.04084 9.33562 3.3401 9.33562 4.75392L 9.33562 8.09402C 9.33562 9.09786 9.75214 9.53798 10.1445 10.0806C 10.2803 10.2735 10.3105 10.5056 10.1355 10.6503C 9.69781 11.0151 8.91908 11.6934 8.49049 12.0732L 8.48747 12.0672"/>
<path id="path7_fill" fill-rule="evenodd" d="M 6.32335 6.84299C 6.32335 7.67801 6.34447 8.37437 5.92191 9.11594C 5.58084 9.71885 5.04057 10.0896 4.4369 10.0896C 3.61291 10.0896 3.133 9.46262 3.133 8.53716C 3.133 6.71035 4.77194 6.37875 6.32335 6.37875L 6.32335 6.84299ZM 8.48747 12.0672C 8.34561 12.1938 8.14036 12.2028 7.98039 12.1184C 7.26807 11.5276 7.1413 11.2532 6.74893 10.6895C 5.57179 11.8893 4.73874 12.248 3.21147 12.248C 1.40653 12.248 0 11.1357 0 8.90794C 0 7.16856 0.944729 5.98385 2.28787 5.40506C 3.45294 4.89258 5.0798 4.80215 6.32335 4.66047L 6.32335 4.38313C 6.32335 3.87367 6.36258 3.27077 6.06377 2.83065C 5.80118 2.43574 5.30014 2.27296 4.85947 2.27296C 4.04151 2.27296 3.31108 2.69198 3.133 3.56016C 3.09678 3.75309 2.95492 3.94301 2.76175 3.95205L 0.679118 3.72898C 0.504056 3.68979 0.310885 3.5481 0.359178 3.27981C 0.839088 0.759664 3.11791 0 5.15828 0C 6.20261 0 7.56688 0.277337 8.39088 1.06714C 9.43522 2.04084 9.33561 3.3401 9.33561 4.75392L 9.33561 8.09402C 9.33561 9.09786 9.75214 9.53798 10.1445 10.0806C 10.2834 10.2735 10.3135 10.5056 10.1385 10.6503C 9.70083 11.0151 8.92211 11.6934 8.4935 12.0732L 8.48747 12.0672"/>
<path id="path8_fill" fill-rule="evenodd" d="M 1.12281 0.180872C 1.63895 0.180872 2.06755 0.596879 2.06755 1.12141C 2.06755 1.63388 1.64498 2.06496 1.12281 2.06496C 0.603665 2.06496 0.181101 1.64292 0.181101 1.12141C 0.181101 0.590848 0.609701 0.180872 1.12281 0.180872ZM 1.12583 0C 0.522168 0 0 0.488354 0 1.12442C 0 1.74843 0.513113 2.24583 1.12583 2.24583C 1.74157 2.24583 2.24864 1.7424 2.24864 1.12442C 2.24864 0.488354 1.73251 0 1.12583 0ZM 0.703266 1.75446L 0.944732 1.75446L 0.944732 1.24802L 1.16809 1.24802C 1.25562 1.24802 1.27976 1.28419 1.29787 1.35654C 1.29787 1.37463 1.34013 1.69417 1.34315 1.75446L 1.61178 1.75446C 1.57858 1.69417 1.56047 1.52234 1.54839 1.41984C 1.52425 1.26007 1.51217 1.14854 1.34013 1.13648C 1.42766 1.10633 1.57858 1.0581 1.57858 0.825984C 1.57858 0.494383 1.2858 0.494383 1.13489 0.494383L 0.703266 0.494383L 0.703266 1.75446ZM 0.938695 0.696357L 1.14092 0.696357C 1.20732 0.696357 1.32806 0.696357 1.32806 0.868185C 1.32806 0.934505 1.29787 1.04604 1.13489 1.04604L 0.938695 1.04604L 0.938695 0.696357Z"/>
</defs>
</svg>
