<svg width="77" height="50" viewBox="0 0 77 50" version="1.1" xmlns="http://www.w3.org/2000/svg" xmlns:xlink="http://www.w3.org/1999/xlink">
<title>amazon-cta-white</title>
<desc>Created using Figma</desc>
<g id="Canvas" transform="translate(2458 2673)">
 clip-path="url(#clip-0)"<g id="amazon-cta-white">
<g id="amazon">
<g id="path8">
<use xlink:href="#path0_fill" transform="translate(-2443.65 -2641.24)" fill="#FF9900"/>
</g>
<g id="path10">
<use xlink:href="#path1_fill" transform="translate(-2415 -2641.93)" fill="#FF9900"/>
</g>
<g id="path12">
<use xlink:href="#path2_fill" transform="translate(-2414.97 -2653.71)" fill="#221F1F"/>
</g>
<g id="path14">
<use xlink:href="#path3_fill" transform="translate(-2441.67 -2653.9)" fill="#221F1F"/>
</g>
<g id="path16">
<use xlink:href="#path4_fill" transform="translate(-2405.87 -2653.9)" fill="#221F1F"/>
</g>
<g id="path18">
<use xlink:href="#path5_fill" transform="translate(-2395 -2653.9)" fill="#221F1F"/>
</g>
<g id="path28">
<use xlink:href="#path6_fill" transform="translate(-2426.04 -2654)" fill="#221F1F"/>
</g>
<g id="path30">
<use xlink:href="#path7_fill" transform="translate(-2453 -2654)" fill="#221F1F"/>
</g>
<g id="path32">
<use xlink:href="#path8_fill" transform="translate(-2386.16 -2653.73)" fill="#221F1F"/>
</g>
</g>
</g>
</g>
<defs>
<path id="path0_fill" fill-rule="evenodd" d="M 31.8754 2.8804C 28.0139 5.7231 22.4168 7.23978 17.5979 7.23978C 10.8409 7.23978 4.75789 4.74375 0.155865 0.592374C -0.205702 0.265924 0.11826 -0.178968 0.552142 0.0752552C 5.51862 2.96129 11.6595 4.69753 18.0028 4.69753C 22.2809 4.69753 26.987 3.81352 31.3143 1.97906C 31.968 1.70172 32.5147 2.40662 31.8754 2.8804"/>
<path id="path1_fill" fill-rule="evenodd" d="M 4.82744 1.73961C 4.33571 1.10983 1.56466 1.44206 0.320866 1.58939C -0.0580583 1.63561 -0.115907 1.30628 0.22541 1.06938C 2.43242 -0.481968 6.05388 -0.034185 6.47619 0.485821C 6.8985 1.00872 6.36627 4.63431 4.29232 6.36478C 3.97414 6.63056 3.67042 6.489 3.81216 6.13655C 4.27786 4.9752 5.32206 2.37229 4.82744 1.73961"/>
<path id="path2_fill" fill-rule="evenodd" d="M 0.384707 1.88935L 0.384707 0.381337C 0.384707 0.153113 0.558259 0 0.766522 0L 7.52638 0C 7.74332 0 7.91687 0.156002 7.91687 0.381337L 7.91687 1.67268C 7.91398 1.88935 7.73175 2.17247 7.40778 2.62025L 3.90492 7.6152C 5.20657 7.58342 6.58052 7.77698 7.76068 8.44143C 8.02679 8.59165 8.0991 8.81121 8.11935 9.02788L 8.11935 10.637C 8.11935 10.8566 7.87638 11.1137 7.62183 10.9808C 5.5421 9.89167 2.77973 9.77322 0.48016 10.9923C 0.245865 11.1195 0 10.8652 0 10.6457L 0 9.11744C 0 8.87188 0.00289067 8.45298 0.248756 8.08031L 4.30699 2.2678L 0.775199 2.2678C 0.558259 2.2678 0.384707 2.11469 0.384707 1.88935"/>
<path id="path3_fill" fill-rule="evenodd" d="M 2.42394 11.4921L 0.367352 11.4921C 0.170661 11.4777 0.0144633 11.3303 0 11.1426L 0 0.600897C 0 0.390006 0.176445 0.222447 0.396277 0.222447L 2.31403 0.222447C 2.51361 0.231108 2.6727 0.384226 2.68717 0.574895L 2.68717 1.95291L 2.72477 1.95291C 3.22518 0.621118 4.16525 0 5.43218 0C 6.71936 0 7.52348 0.621118 8.10199 1.95291C 8.59951 0.621118 9.73049 0 10.9425 0C 11.8044 0 12.7474 0.355337 13.323 1.15268C 13.9738 2.03958 13.8408 3.32804 13.8408 4.45761L 13.8379 11.1108C 13.8379 11.3217 13.6614 11.4921 13.4416 11.4921L 11.3879 11.4921C 11.1825 11.4777 11.0177 11.313 11.0177 11.1108L 11.0177 5.52362C 11.0177 5.07872 11.0582 3.96938 10.9598 3.54759C 10.8065 2.83981 10.3466 2.64047 9.75073 2.64047C 9.25322 2.64047 8.73256 2.9727 8.52141 3.50426C 8.31025 4.03582 8.3305 4.92561 8.3305 5.52362L 8.3305 11.1108C 8.3305 11.3217 8.15405 11.4921 7.93422 11.4921L 5.88052 11.4921C 5.67226 11.4777 5.51028 11.313 5.51028 11.1108L 5.50739 5.52362C 5.50739 4.34783 5.70118 2.61736 4.24046 2.61736C 2.76237 2.61736 2.82022 4.30449 2.82022 5.52362L 2.82022 11.1108C 2.82022 11.3217 2.64378 11.4921 2.42394 11.4921"/>
<path id="path4_fill" fill-rule="evenodd" d="M 4.62806 1.25275e-14C 7.67968 1.25275e-14 9.33132 2.61736 9.33132 5.9454C 9.33132 9.16077 7.50613 11.7117 4.62806 11.7117C 1.63139 11.7117 0 9.09432 0 5.83273C 0 2.55092 1.65164 0 4.62806 0M 4.64541 2.15225C 3.12973 2.15225 3.03427 4.21493 3.03427 5.50051C 3.03427 6.78896 3.01402 9.53922 4.62806 9.53922C 6.22185 9.53922 6.29705 7.32053 6.29705 5.96851C 6.29705 5.07872 6.25945 4.0156 5.99044 3.17203C 5.75904 2.43825 5.29913 2.15225 4.64541 2.15225"/>
<path id="path5_fill" fill-rule="evenodd" d="M 2.42105 11.4921L 0.373137 11.4921C 0.167765 11.4777 0.00289068 11.313 0.00289068 11.1108L 0 0.566228C 0.0173551 0.37267 0.188015 0.222447 0.396277 0.222447L 2.30246 0.222447C 2.48179 0.231108 2.62931 0.352449 2.66981 0.517117L 2.66981 2.12913L 2.70741 2.12913C 3.28303 0.687563 4.09004 0 5.51028 0C 6.433 0 7.33258 0.332226 7.91108 1.24224C 8.44909 2.0858 8.44909 3.50426 8.44909 4.52405L 8.44909 11.1599C 8.42595 11.3448 8.25529 11.4921 8.05282 11.4921L 5.99044 11.4921C 5.80242 11.4777 5.64623 11.339 5.62598 11.1599L 5.62598 5.43406C 5.62598 4.28138 5.75904 2.59425 4.3388 2.59425C 3.83839 2.59425 3.37848 2.92937 3.14997 3.43782C 2.86072 4.08205 2.82311 4.72339 2.82311 5.43406L 2.82311 11.1108C 2.82022 11.3217 2.64089 11.4921 2.42105 11.4921"/>
<path id="path6_fill" fill-rule="evenodd" d="M 6.05986 6.55785C 6.05986 7.35808 6.08011 8.02542 5.67516 8.7361C 5.3483 9.31388 4.82764 9.66922 4.25203 9.66922C 3.46237 9.66922 2.99956 9.06832 2.99956 8.18142C 2.99956 6.43074 4.57021 6.11296 6.05986 6.11296L 6.05986 6.55785M 8.13381 11.5643C 7.99786 11.6857 7.80117 11.6944 7.64787 11.6135C 6.96523 11.0472 6.84085 10.7843 6.46771 10.2441C 5.33962 11.3939 4.53839 11.7377 3.07766 11.7377C 1.34503 11.7377 0 10.6717 0 8.53676C 0 6.86985 0.902473 5.73451 2.19254 5.17984C 3.30906 4.68872 4.86814 4.60205 6.05986 4.46627L 6.05986 4.20049C 6.05986 3.71226 6.09747 3.13448 5.80821 2.7127C 5.55945 2.33425 5.07929 2.17825 4.65409 2.17825C 3.87021 2.17825 3.17311 2.57981 3.00245 3.41182C 2.96774 3.59671 2.83179 3.77871 2.64378 3.78738L 0.650821 3.57359C 0.483053 3.53604 0.295039 3.40026 0.344212 3.14315C 0.801233 0.72801 2.98799 0 4.94334 0C 5.94416 0 7.25159 0.265781 8.04125 1.02268C 9.04207 1.9558 8.94661 3.20092 8.94661 4.55583L 8.94661 7.75675C 8.94661 8.71876 9.34578 9.14054 9.72181 9.66055C 9.85198 9.84544 9.88091 10.0679 9.71313 10.2066C 9.29371 10.5561 8.54744 11.2061 8.1367 11.5701L 8.13381 11.5643"/>
<path id="path7_fill" fill-rule="evenodd" d="M 6.05986 6.55785C 6.05986 7.35808 6.08011 8.02542 5.67515 8.7361C 5.3483 9.31388 4.83053 9.66922 4.25203 9.66922C 3.46236 9.66922 3.00245 9.06832 3.00245 8.18142C 3.00245 6.43074 4.5731 6.11296 6.05986 6.11296L 6.05986 6.55785M 8.13381 11.5643C 7.99786 11.6857 7.80117 11.6944 7.64786 11.6135C 6.96522 11.0472 6.84374 10.7843 6.46771 10.2441C 5.33962 11.3939 4.54128 11.7377 3.07766 11.7377C 1.34792 11.7377 0 10.6717 0 8.53676C 0 6.86985 0.905363 5.73451 2.19254 5.17984C 3.30906 4.68872 4.86814 4.60205 6.05986 4.46627L 6.05986 4.20049C 6.05986 3.71226 6.09746 3.13448 5.8111 2.7127C 5.55945 2.33425 5.07929 2.17825 4.65698 2.17825C 3.87311 2.17825 3.17311 2.57981 3.00245 3.41182C 2.96774 3.59671 2.83179 3.77871 2.64667 3.78738L 0.65082 3.57359C 0.483053 3.53604 0.297931 3.40026 0.344211 3.14315C 0.804124 0.72801 2.98799 0 4.94334 0C 5.94416 0 7.25158 0.265781 8.04125 1.02268C 9.04206 1.9558 8.94661 3.20092 8.94661 4.55583L 8.94661 7.75675C 8.94661 8.71876 9.34578 9.14054 9.72181 9.66055C 9.85487 9.84544 9.88379 10.0679 9.71602 10.2066C 9.29661 10.5561 8.55033 11.2061 8.13959 11.5701L 8.13381 11.5643"/>
<path id="path8_fill" fill-rule="evenodd" d="M 1.07603 0.173335C 1.57065 0.173335 1.98139 0.572008 1.98139 1.07468C 1.98139 1.5658 1.57644 1.97891 1.07603 1.97891C 0.578511 1.97891 0.173555 1.57446 0.173555 1.07468C 0.173555 0.566228 0.584296 0.173335 1.07603 0.173335ZM 1.07892 0C 0.50041 0 0 0.468005 0 1.07757C 0 1.67557 0.491732 2.15225 1.07892 2.15225C 1.669 2.15225 2.15494 1.6698 2.15494 1.07757C 2.15494 0.468005 1.66032 0 1.07892 0ZM 0.673962 1.68135L 0.905366 1.68135L 0.905366 1.19601L 1.11941 1.19601C 1.2033 1.19601 1.22644 1.23068 1.24379 1.30001C 1.24379 1.31735 1.28429 1.62357 1.28718 1.68135L 1.54462 1.68135C 1.5128 1.62357 1.49544 1.45891 1.48387 1.36068C 1.46073 1.20757 1.44916 1.10068 1.28429 1.08912C 1.36817 1.06023 1.5128 1.01401 1.5128 0.791566C 1.5128 0.473783 1.23222 0.473783 1.0876 0.473783L 0.673962 0.473783L 0.673962 1.68135ZM 0.899581 0.667341L 1.09338 0.667341C 1.15702 0.667341 1.27272 0.667341 1.27272 0.832009C 1.27272 0.895565 1.24379 1.00246 1.0876 1.00246L 0.899581 1.00246L 0.899581 0.667341Z"/>
</defs>
</svg>
