<svg width="65" height="65" viewBox="0 0 65 65" version="1.1" xmlns="http://www.w3.org/2000/svg" xmlns:xlink="http://www.w3.org/1999/xlink">
<title>circle-app-icon</title>
<desc>Created using Figma</desc>
<g id="Canvas" transform="matrix(0.349462 0 0 0.349462 2019.89 1410.08)">
<g id="circle-app-icon">
<g id="Rectangle">
<use xlink:href="#path0_fill" transform="translate(-5780 -4035)" fill="#FFFFFF"/>
</g>
<g id="Mask">
<use xlink:href="#path1_fill" transform="translate(-5762 -4017)" fill="#00B7D9"/>
</g>
<g id="home-icon">
<use xlink:href="#path2_fill" transform="translate(-5725.51 -3976.88)" fill="#FFFFFF"/>
</g>
</g>
</g>
<defs>
<path id="path0_fill" d="M 0 32.6953C 0 14.6382 14.6382 0 32.6953 0L 153.305 0C 171.362 0 186 14.6382 186 32.6953L 186 153.305C 186 171.362 171.362 186 153.305 186L 32.6953 186C 14.6382 186 0 171.362 0 153.305L 0 32.6953Z"/>
<path id="path1_fill" fill-rule="evenodd" d="M 75 150C 116.421 150 150 116.421 150 75C 150 33.5786 116.421 0 75 0C 33.5786 0 0 33.5786 0 75C 0 116.421 33.5786 150 75 150Z"/>
<path id="path2_fill" d="M 31.6119 63.494C 31.6119 65.5446 29.9593 67.207 27.9207 67.207L 12.9781 67.207C 10.9395 67.207 9.28691 65.5446 9.28691 63.494L 9.28691 40.2141C 9.28691 38.1634 7.6343 36.501 5.5957 36.501L 3.69856 36.501C 0.241935 36.501 -1.31849 32.1498 1.34207 29.93L 36.1903 0.855114C 37.558 -0.286021 39.5399 -0.284924 40.9064 0.857725L 75.6767 29.9326C 78.3333 32.154 76.7717 36.501 73.3171 36.501L 71.4023 36.501C 69.3637 36.501 67.7111 38.1634 67.7111 40.2141L 67.7111 63.494C 67.7111 65.5446 66.0585 67.207 64.0199 67.207L 49.0773 67.207C 47.0387 67.207 45.3861 65.5446 45.3861 63.494L 45.3861 48.3754C 45.3861 46.3247 43.7335 44.6623 41.6949 44.6623L 35.3031 44.6623C 33.2645 44.6623 31.6119 46.3247 31.6119 48.3754L 31.6119 63.494Z"/>
</defs>
</svg>
