<?xml version="1.0" encoding="utf-8"?>
<!-- Generator: Adobe Illustrator 21.1.0, SVG Export Plug-In . SVG Version: 6.00 Build 0)  -->
<svg version="1.1" id="Layer_1" xmlns:figma="http://www.figma.com/figma/ns"
	 xmlns="http://www.w3.org/2000/svg" xmlns:xlink="http://www.w3.org/1999/xlink" x="0px" y="0px" viewBox="0 0 125 63"
	 style="enable-background:new 0 0 125 63;" xml:space="preserve">
<style type="text/css">
	.st0{fill:#00B7D9;}
</style>
<title>circle-with-disney-blue</title>
<desc>Created using Figma (9000)</desc>
<g>
	<path class="st0" d="M122.7,12.1c0.2,0,0.4-0.1,0.4-0.4c0-0.2-0.1-0.4-0.4-0.4h-0.3v0.7H122.7z M121.9,11.1h0.8
		c0.4,0,0.7,0.3,0.7,0.7c0,0.3-0.2,0.5-0.4,0.6v0c0,0,0,0,0.1,0.1l0.4,0.8h-0.4l-0.4-0.8h-0.4v0.8h-0.4V11.1z M122.6,13.9
		c0.9,0,1.6-0.7,1.6-1.7c0-1-0.7-1.7-1.6-1.7c-0.9,0-1.6,0.7-1.6,1.7C121,13.1,121.7,13.9,122.6,13.9 M122.6,10.1
		c1.1,0,2.1,0.9,2.1,2.1c0,1.2-0.9,2.1-2.1,2.1c-1.1,0-2-0.9-2-2.1C120.6,11,121.5,10.1,122.6,10.1"/>
	<path class="st0" d="M19.7,48.6c0-0.1,0-0.1,0-0.2c0-0.3,0.2-0.5,0.5-0.5c0.3,0,0.5,0.2,0.5,0.4l1.4,4.1l1.3-4.1
		c0.1-0.2,0.3-0.4,0.5-0.4H24c0.3,0,0.5,0.2,0.5,0.4l1.3,4.1l1.4-4.1c0.1-0.2,0.3-0.4,0.5-0.4c0.3,0,0.5,0.2,0.5,0.5
		c0,0.1,0,0.2-0.1,0.2l-1.8,4.9c-0.1,0.3-0.3,0.4-0.5,0.4h-0.1c-0.3,0-0.4-0.2-0.5-0.4L24,49.7l-1.3,3.9c-0.1,0.3-0.3,0.4-0.5,0.4
		H22c-0.3,0-0.4-0.2-0.5-0.4L19.7,48.6z"/>
	<path class="st0" d="M29.5,48.4c0-0.3,0.2-0.5,0.5-0.5c0.3,0,0.5,0.2,0.5,0.5v5c0,0.3-0.2,0.5-0.5,0.5c-0.3,0-0.5-0.2-0.5-0.5V48.4
		z"/>
	<path class="st0" d="M33.6,48.9h-1.5c-0.3,0-0.5-0.2-0.5-0.5c0-0.3,0.2-0.5,0.5-0.5h4c0.3,0,0.5,0.2,0.5,0.5c0,0.3-0.2,0.5-0.5,0.5
		h-1.5v4.5c0,0.3-0.2,0.5-0.5,0.5c-0.3,0-0.5-0.2-0.5-0.5V48.9z"/>
	<path class="st0" d="M37.7,48.4c0-0.3,0.2-0.5,0.5-0.5c0.3,0,0.5,0.2,0.5,0.5v2h2.8v-2c0-0.3,0.2-0.5,0.5-0.5
		c0.3,0,0.5,0.2,0.5,0.5v5c0,0.3-0.2,0.5-0.5,0.5c-0.3,0-0.5-0.2-0.5-0.5v-2h-2.8v2c0,0.3-0.2,0.5-0.5,0.5c-0.3,0-0.5-0.2-0.5-0.5
		V48.4z"/>
	<path class="st0" d="M52.1,54.4c-3-1-5-2.7-5-3.3c0-0.9,2.6-1.2,5-1.3C52.1,51.2,52.1,53.1,52.1,54.4 M48.5,38.9
		c-2.3,0.1-4.2,0.4-4.6,0.8c-0.4,0.4-0.8,0.7-0.8,1.3c0,0.5,0.6,0.6,1,0.6c0.4,0,0.7,0,0.7-0.3c0-0.3-0.5-0.2-0.5-0.5
		c0-0.4,1.9-0.4,2.9-0.4c8.2,0,17.6,5.6,17.6,10.4c0,3.7-4.8,4.6-7.5,4.6c-0.9,0-1.9-0.1-2.8-0.3c0-1.2-0.1-3.7-0.1-5.3
		c0.3,0,0.6,0,0.8,0c2,0,4.6,0.7,4.6,1.2c0,0.4-0.7,0.7-0.7,1.1c0,0.3,0.6,0.2,1.2,0.3c0.1,0,1.2-0.6,1.2-1.6c0-1.3-1.6-2.9-7-2.8
		c-0.1,0-0.2,0-0.2,0C54.2,46.3,54,44,53.1,44c-0.7,0-0.9,2.6-1,4c-3,0.4-5.6,1.7-5.6,2.9c0,1,2.1,3.4,5.6,4.9
		c0.1,1.1,0.3,1.9,1.3,1.9c0.7,0,1-0.5,1-1.1c1.1,0.3,2.3,0.4,3.6,0.4c5,0,9-2.7,9-6.4C67,45.7,57.1,38.6,48.5,38.9"/>
	<path class="st0" d="M68.9,47.9c-0.8,0-0.9,3.4-0.9,4.7c-0.1,2.9,0.4,3.2,1.1,3.2c0.7,0,0.9-0.1,0.9-2.5
		C69.8,48.8,69.5,47.9,68.9,47.9L68.9,47.9z"/>
	<path class="st0" d="M69.5,45.2L69.5,45.2c-0.4,0-0.8-0.1-1.1-0.2c0.8-0.9,2.8-2.7,3.8-2.7c0.6,0,0.8,0.5,0.8,0.7
		C73,44.2,70.5,45.2,69.5,45.2 M67.2,44.1c0-0.1,0-0.2,0-0.3c0-0.6,0.8-1.4,2.5-1.7C68.7,42.6,67.8,43.3,67.2,44.1 M72.7,41.4
		c-0.4-0.4-1.1-0.9-2-0.9c-2.9,0-4.8,2.3-4.8,3.6c0,0.5,0.2,1,0.6,1.5c0,1,0.3,1.3,0.6,1.3c0.4,0,0.6-0.2,0.7-0.5
		c0.4,0.1,0.9,0.2,1.5,0.2c1.9,0,4.9-2.1,4.9-3.9C74.2,41.9,73.7,41.5,72.7,41.4"/>
	<path class="st0" d="M79,48.5c0-0.8-2-0.8-3.2-0.8c-0.9,0-5.2,0.1-5.2,2.5c0,1.6,2.4,1.2,4,1.4c1.3,0.1,2.9,0.6,2.9,1
		c0,1-3.5,1.3-4.2,1.4c-1.5,0-1.5-0.4-1.5-0.6c0-0.2,0.2-0.6,0.8-0.6s1.7,0.7,2.5,0.7c0.8,0,1.4-0.4,1.4-0.7c0-0.6-2.6-1-3.4-0.9
		c-0.8,0-2.1,0.4-2.1,1.6c0,0.7,1.1,2.2,4.1,2.2c3,0,3.7-1.7,3.7-2.6c0-2.1-2-2.4-3.8-2.5c-1.3-0.1-2.7-0.2-2.7-0.5
		C72.5,49.1,79,49.9,79,48.5L79,48.5z"/>
	<path class="st0" d="M84,46.7c-0.2,0-0.3,0.3-0.3,0.5c0,0.8,1.2,3.7,1.2,4.8c0,0.2,0,0.6-0.2,0.7c-0.3,0.1-2.7-4.3-3.7-4.4
		c-1-0.1-1.6,4.3-1.6,5.4c0,1.1,0.2,1.8,1,1.8c1.2,0,0.6-4.4,1.1-4.4c0.4,0,2.3,4,3.4,4c1.2,0,1.9-1.7,1.8-2.8
		C86.6,49.9,85,46.7,84,46.7L84,46.7z"/>
	<path class="st0" d="M92,53.5c-0.4,0-2.7,0.5-2.9,0.4c-0.2-0.1,0.1-1.5,0.4-1.6c0.3-0.1,2.1-0.1,2.4-0.1c0.8,0,0.7-1.2,0.2-1.2
		c-0.3,0-1.9,0-2-0.2c-0.1-0.2,0-0.9,0.2-1c0.4-0.2,2.9-0.2,3.1-0.3c0.3-0.1,0.5-0.2,0.6-0.5c0.1-0.3-0.9-1.4-2-1.2
		c-2,0.2-4.6,0.2-4.6,0.9c0,0.6,1.2,0.9,1.2,1c0,0.2-0.2,0.8-0.2,1c-0.1,0.2-0.9,0.3-1,0.9c0,0.1,0.2,0.4,0.2,0.5
		c-0.1,0.5-0.5,1.5-0.5,2c0,0.7,0.5,2.1,1.9,2.1c2.1-0.1,4.1-1.6,4.1-1.8C93,53.9,92.4,53.5,92,53.5L92,53.5z"/>
	<path class="st0" d="M97.5,54c1-1.7,2.4-4,2.9-4c0.4,0,0.5,0.4,0.5,0.9C101,52.6,99,54,97.5,54 M100.4,48.4L100.4,48.4
		c-1.2,0.1-3.4,2.5-4.7,4.2c-0.1-0.2-0.1-0.3-0.1-0.5c0-0.7,1.3-2.8,1.6-3.4c0.3-0.6,0-1.3-0.4-1c-0.6,0.5-2.6,2.8-2.6,5
		c0,0.5,0.1,1.1,0.4,1.7c-0.5,1.5-1.5,4.7-1.5,6.7c0,1,1,2,1.7,1.9c0.2-0.1,0.3-1.4,0.6-2.3c0.4-1.3,1.1-3.7,1.4-4.7
		c0.1,0,0.2,0,0.3,0c2.4,0,5.2-2.6,5.2-4.9C102.1,48.9,100.8,48.4,100.4,48.4"/>
	<path class="st0" d="M31.4,6.2c1.7,0,3.1-1.4,3.1-3.1c0-1.7-1.4-3.1-3.1-3.1c-1.7,0-3.1,1.4-3.1,3.1C28.3,4.8,29.7,6.2,31.4,6.2"/>
	<path class="st0" d="M102.5,19.9c0.7-4.2,3.7-6.5,7.5-6.5c3.3,0,6,2.1,6.1,6.5H102.5z M121.1,21.5c0-6.6-3.8-12-11-12
		c-7.3,0-12.7,5.3-12.7,13.4c0,7.6,5.5,13.4,13.5,13.4c6.1,0,9.9-3.6,9.9-3.6l-2-3.6c0,0-3.2,3-7.6,3c-4.5,0-8.5-2.8-8.8-8.4h18.6
		C120.9,23.6,121.1,22.1,121.1,21.5"/>
	<path class="st0" d="M29,28.7c0,6.4,4.1,7.2,6.8,7.2c0.9,0,1.6-0.1,1.6-0.1v-4.3c0,0-0.4,0.1-0.9,0.1c-1.5,0-2.7-0.6-2.7-3.6V10.1
		H29V28.7z"/>
	<path class="st0" d="M86.8,28.7c0,6.4,4.1,7.2,6.8,7.2c0.9,0,1.6-0.1,1.6-0.1v-4.3c0,0-0.4,0.1-0.9,0.1c-1.5,0-2.7-0.6-2.7-3.6V0
		h-4.9V28.7z"/>
	<path class="st0" d="M58.4,22.9c0,7.7,5.6,13.4,13.6,13.4c6.6,0,10.2-4.1,10.2-4.1l-2-3.6c0,0-3.1,3.4-7.9,3.4c-5.3,0-9-4-9-9.2
		c0-5.3,3.7-9.1,8.9-9.1c4.3,0,7,2.9,7,2.9l2.3-3.4c0,0-3.2-3.7-9.6-3.7C64.1,9.5,58.4,15.3,58.4,22.9"/>
	<path class="st0" d="M42.9,35.7h4.9V25.2c0-1.6,0.2-3.1,0.6-4.6c1.2-3.8,4-6,7.2-6c0.8,0,1.4,0.2,1.4,0.2V9.9c0,0-0.6-0.1-1.3-0.1
		c-3.9,0-6.9,2.9-8.1,6.7h-0.1c0,0,0.1-0.9,0.1-1.9v-4.5l-4.7,0V35.7z"/>
	<path class="st0" d="M14,36.3c6.6,0,10.2-4.1,10.2-4.1l-2-3.6c0,0-3.1,3.4-7.9,3.4c-5.3,0-9-4-9-9.2c0-5.3,3.7-9.1,8.9-9.1
		c4.3,0,7,2.9,7,2.9l2.3-3.4c0,0-3.2-3.7-9.6-3.7c-8,0-13.6,5.8-13.6,13.4C0.3,30.6,6,36.3,14,36.3"/>
</g>
</svg>
